<svg
                    width="30"
                    height="30"
                    viewBox="0 0 30 30"
                    fill="none"
                    xmlns="http://www.w3.org/2000/svg"
                  >
                    <path
                      d="M22.343 0.0150131C22.2645 -0.0562366 19.4376 0.043138 16.9776 2.2125C14.5176 4.37999 14.896 6.86623 14.9514 6.92998C15.0068 6.99373 18.4591 7.0931 20.663 4.57124C22.8668 2.04938 22.4214 0.0881377 22.343 0.0150131ZM29.9907 22.0143C29.8799 21.8343 24.6253 19.7005 25.1145 15.5981C25.6037 11.4937 28.9799 10.3687 29.033 10.2468C29.0861 10.125 27.6553 8.76559 26.1391 8.07747C25.0259 7.59232 23.7939 7.31437 22.5322 7.26373C22.283 7.2581 21.4176 7.0856 19.6383 7.48123C18.466 7.74185 15.8237 8.5856 15.0968 8.61934C14.3676 8.65309 12.1983 7.6406 9.86524 7.37247C8.37216 7.1381 6.78908 7.6181 5.656 7.98747C4.52522 8.35497 2.37445 9.40122 0.869831 12.1818C-0.634788 14.9606 0.152137 19.363 0.715215 20.7318C1.27829 22.0986 2.15753 24.3393 3.65291 25.9743C4.98215 27.8192 6.74523 29.0999 7.48139 29.5349C8.21754 29.9699 10.2945 30.2586 11.7345 29.6605C12.8929 29.083 14.9837 28.7511 15.8099 28.7755C16.6337 28.7999 18.2583 29.0642 19.9222 29.7861C21.2399 30.1555 22.486 30.0017 23.7345 29.5892C24.983 29.1749 26.7899 27.6036 28.8991 24.418C29.6999 22.9368 30.0645 22.1362 29.9907 22.0143Z"
                      fill="black"
                    />
                  </svg>